# xmcd CD database file
#
# Track frame offsets:
#	150
#	11379
#	27253
#	45713
#	57788
#	75540
#	96066
#	111992
#	132877
#	153486
#	175011
#	193699
#	207061
#	229606
#	260058
#	274181
#	299992
#
# Disc length: 4409 seconds
#
# Revision: 2
# Processed by: cddbd v1.5.2PL0 Copyright (c) Steve Scherf et al.
# Submitted via: CDex 1.70beta2
#
DISCID=ec113711
DTITLE=Robbie Williams - Live at the Albert
DYEAR=2001
DGENRE=Jazz
TTITLE0=Opening
TTITLE1=Have You Met Miss Jones?
TTITLE2=Mack The Knife
TTITLE3=Straighten Up and Fly Right
TTITLE4=Let's Face the Music and Dance
TTITLE5=Well, Did You Evah! (feat. Jon Lovitz)
TTITLE6=The Lady is a Tramp
TTITLE7=Things (feat. Jane Horrocks)
TTITLE8=One for My Baby
TTITLE9=Mr. Bojangles
TTITLE10=I Will Talk and Hollywood Will Listen
TTITLE11=Do Nothin' Till You Hear from Me
TTITLE12=Beyond the Sea
TTITLE13=Me and My Shadow (feat. Jonathan Wilkes)
TTITLE14=Ain't That a Kick in the Head
TTITLE15=It Was a Very Good Year (featuring a video with Frank Sinatra)
TTITLE16=My Way
EXTD=YEAR: 2001
EXTT0=
EXTT1=
EXTT2=
EXTT3=
EXTT4=
EXTT5=
EXTT6=
EXTT7=
EXTT8=
EXTT9=
EXTT10=
EXTT11=
EXTT12=
EXTT13=
EXTT14=
EXTT15=
EXTT16=
PLAYORDER=
